<svg xmlns="http://www.w3.org/2000/svg" xmlns:xlink="http://www.w3.org/1999/xlink" version="1.1" width="105" height="125" viewBox="0 0 105 125" xml:space="preserve">
<desc>Created with Fabric.js 3.6.3</desc>
<defs>
</defs>
<g transform="matrix(1 0 0 1 45.48852734187667 71.31181348021975)" style="" id="uid8wql5itid">
		
<g xml:space="preserve" style="stroke: rgb(3,84,107); stroke-width: 0; stroke-dasharray:none; stroke-linecap: butt; stroke-dashoffset: 0; stroke-linejoin: miter; stroke-miterlimit: 4; fill: rgb(255,255,255); fill-rule: nonzero; opacity: 1; white-space: pre;"><path d="M51.95-8.37L51.95-8.37Q51.95 21.45 35.39 37.23Q18.83 53.01-12.32 53.01L-12.32 53.01L-46.02 53.01L-46.02-67.45L-8.77-67.45Q19.98-67.45 35.96-51.96Q51.95-36.47 51.95-8.37ZM31.19-7.72L31.19-7.72Q31.19-50.97-9.27-50.97L-9.27-50.97L-26.32-50.97L-26.32 36.45L-12.32 36.45Q31.19 36.45 31.19-7.72Z"/></g></g>
<g transform="matrix(1 0 0 1 34.67465087719298 63.58150701754384)" id="uidvde9n46nl">
<path style="stroke: rgb(68,117,4); stroke-width: 0; stroke-dasharray:none; stroke-linecap: butt; stroke-dashoffset: 0; stroke-linejoin: miter; stroke-miterlimit: 4; fill: rgb(0,0,0); fill-rule: nonzero; opacity: 1;" transform=" translate(-38.5343, -65.0837)" d="M 38.5343 18.0915 c 26.04721 0 46.9922 20.9451 46.9922 46.9922 c 0 26.04721 -20.9451 46.9922 -46.9922 46.9922 c -26.04721 0 -46.9922 -20.9451 -46.9922 -46.9922 c 0 -26.04721 20.9451 -46.9922 46.9922 -46.9922 z" stroke-linecap="round"/>
</g>
<g transform="matrix(1 0 0 1 34.87398087719298 64.04023701754384)" id="uideho7kxjdm">
<path style="stroke: rgb(45,170,13); stroke-width: 0; stroke-dasharray:none; stroke-linecap: butt; stroke-dashoffset: 0; stroke-linejoin: miter; stroke-miterlimit: 4; fill: rgb(255,255,255); fill-rule: nonzero; opacity: 1;" transform=" translate(-38.73363, -65.54243)" d="M 38.73363 30.61202 c 19.36143 0 34.93041 15.569 34.93041 34.93041 c 0 19.36143 -15.569 34.93041 -34.93041 34.93041 c -19.36143 0 -34.93041 -15.569 -34.93041 -34.93041 c 0 -19.36143 15.569 -34.93041 34.93041 -34.93041 z" stroke-linecap="round"/>
</g>
<g transform="matrix(1 0 0 1 22.129385243905045 63.95614035087719)" id="uidvx8gxxxz4">
<path style="stroke: rgb(0,127,19); stroke-width: 0; stroke-dasharray:none; stroke-linecap: butt; stroke-dashoffset: 0; stroke-linejoin: miter; stroke-miterlimit: 4; fill: rgb(0,0,0); fill-rule: nonzero; opacity: 1;" transform=" translate(-16.499955, -16.5)" d="M 22.62934 -1.22808 v 35.45616 h -12.25877 v -35.45616 z" stroke-linecap="round"/>
</g>
<g transform="matrix(1 0 0 1 47.87061475609495 64.04385964912281)" id="uid6fg9xtm7b">
<path style="stroke: rgb(0,127,19); stroke-width: 0; stroke-dasharray:none; stroke-linecap: butt; stroke-dashoffset: 0; stroke-linejoin: miter; stroke-miterlimit: 4; fill: rgb(0,0,0); fill-rule: nonzero; opacity: 1;" transform=" translate(-16.499955, -16.5)" d="M 22.62934 -1.22808 v 35.45616 h -12.25877 v -35.45616 z" stroke-linecap="round"/>
</g>
</svg>